<svg xmlns="http://www.w3.org/2000/svg" xmlns:xlink="http://www.w3.org/1999/xlink" width="56px" height="56px" viewBox="0 0 56 56" version="1.1">
<g id="surface1">
<path style=" stroke:none;fill-rule:nonzero;fill:#8f8e8e;fill-opacity:1;" d="M 27.453125 0.0664062 C 27.367188 0.109375 21.382812 2.625 14.164062 5.652344 C 5.480469 9.308594 0.929688 11.277344 0.722656 11.464844 C 0.546875 11.628906 0.316406 11.953125 0.207031 12.195312 C 0.0117188 12.609375 0 13.234375 0 26.566406 C 0 36.839844 0.0351562 40.609375 0.128906 40.917969 C 0.195312 41.160156 0.414062 41.507812 0.601562 41.703125 C 0.832031 41.933594 5.445312 44.429688 14.121094 48.988281 L 27.289062 55.933594 L 28.710938 55.933594 L 41.878906 48.988281 C 50.609375 44.394531 55.167969 41.933594 55.398438 41.703125 C 55.597656 41.507812 55.804688 41.160156 55.871094 40.917969 C 55.964844 40.609375 56 36.839844 56 26.566406 C 56 13.234375 55.988281 12.609375 55.792969 12.195312 C 55.683594 11.953125 55.441406 11.628906 55.265625 11.464844 C 55.058594 11.253906 50.761719 9.394531 41.835938 5.632812 C 28.734375 0.109375 28.035156 -0.164062 27.453125 0.0664062 Z M 38.402344 8.871094 C 44.023438 11.234375 48.652344 13.191406 48.691406 13.222656 C 48.78125 13.300781 28.253906 24.117188 28.011719 24.117188 C 27.824219 24.117188 7.21875 13.308594 7.273438 13.246094 C 7.394531 13.136719 27.964844 4.503906 28.066406 4.539062 C 28.128906 4.558594 32.777344 6.507812 38.402344 8.871094 Z M 15.136719 22.300781 L 25.8125 27.921875 L 25.8125 39.078125 C 25.8125 47.949219 25.777344 50.214844 25.683594 50.171875 C 25.605469 50.148438 20.769531 47.609375 14.929688 44.535156 L 4.320312 38.949219 L 4.285156 27.78125 C 4.277344 21.425781 4.308594 16.625 4.363281 16.648438 C 4.410156 16.660156 9.265625 19.207031 15.136719 22.300781 Z M 51.714844 27.792969 L 51.679688 38.960938 L 41.015625 44.570312 C 35.152344 47.664062 30.316406 50.203125 30.277344 50.203125 C 30.222656 50.203125 30.1875 45.191406 30.1875 39.066406 L 30.1875 27.933594 L 40.882812 22.289062 C 46.757812 19.183594 51.601562 16.648438 51.660156 16.636719 C 51.703125 16.625 51.722656 21.644531 51.714844 27.792969 Z M 51.714844 27.792969 "/>
<path style=" stroke:none;fill-rule:nonzero;fill:#8f8e8e;fill-opacity:1;" d="M 9.898438 23.878906 C 9.429688 24.097656 8.871094 24.707031 8.738281 25.15625 C 8.671875 25.410156 8.640625 27.976562 8.660156 32.550781 L 8.695312 39.558594 L 8.992188 39.953125 C 9.472656 40.578125 9.921875 40.828125 10.609375 40.882812 C 11.628906 40.960938 12.523438 40.347656 12.796875 39.398438 C 12.882812 39.121094 12.90625 36.785156 12.882812 32.027344 L 12.851562 25.066406 L 12.511719 24.652344 C 11.964844 23.964844 11.671875 23.800781 10.902344 23.765625 C 10.488281 23.746094 10.097656 23.789062 9.898438 23.878906 Z M 9.898438 23.878906 "/>
<path style=" stroke:none;fill-rule:nonzero;fill:#8f8e8e;fill-opacity:1;" d="M 18.539062 28.195312 C 18.027344 28.449219 17.566406 28.910156 17.402344 29.347656 C 17.324219 29.554688 17.28125 31.972656 17.28125 36.652344 C 17.28125 43.421875 17.292969 43.660156 17.5 44.078125 C 18.027344 45.105469 19.390625 45.523438 20.410156 44.972656 C 20.792969 44.777344 21.308594 44.109375 21.4375 43.671875 C 21.527344 43.390625 21.546875 41.148438 21.527344 36.367188 L 21.492188 29.476562 L 21.230469 29.058594 C 20.671875 28.152344 19.445312 27.769531 18.539062 28.195312 Z M 18.539062 28.195312 "/>
<path style=" stroke:none;fill-rule:nonzero;fill:#8f8e8e;fill-opacity:1;" d="M 44.351562 23.878906 C 43.96875 24.050781 43.347656 24.71875 43.191406 25.121094 C 43.136719 25.277344 43.09375 28.285156 43.09375 32.277344 C 43.09375 38.246094 43.117188 39.222656 43.257812 39.570312 C 43.640625 40.46875 44.429688 40.949219 45.390625 40.882812 C 46.078125 40.828125 46.527344 40.578125 47.007812 39.953125 L 47.304688 39.558594 L 47.304688 25.089844 L 47.042969 24.695312 C 46.617188 24.074219 46.121094 23.800781 45.347656 23.765625 C 44.941406 23.746094 44.546875 23.789062 44.351562 23.878906 Z M 44.351562 23.878906 "/>
<path style=" stroke:none;fill-rule:nonzero;fill:#8f8e8e;fill-opacity:1;" d="M 35.898438 28.121094 C 35.414062 28.261719 34.714844 28.984375 34.574219 29.496094 C 34.496094 29.773438 34.453125 32.253906 34.453125 36.671875 C 34.453125 42.535156 34.472656 43.488281 34.628906 43.839844 C 34.804688 44.277344 35.253906 44.789062 35.601562 44.972656 C 36.609375 45.523438 37.984375 45.097656 38.5 44.078125 C 38.707031 43.660156 38.71875 43.421875 38.71875 36.652344 C 38.71875 31.972656 38.675781 29.554688 38.597656 29.347656 C 38.226562 28.347656 37.011719 27.804688 35.898438 28.121094 Z M 35.898438 28.121094 "/>
</g>
</svg>